# xmcd
#
# Track frame offsets:
#	189
#	12508
#	26449
#	41165
#	61364
#	69962
#	83060
#	95378
#	103551
#	113378
#	126626
#	136360
#
# Disc length: 1932 seconds
#
# Revision: 1
# Processed by: cddbd v1.5.2PL0 Copyright (c) Steve Scherf et al.
# Submitted via: audiograbber 1.81.03
#
DISCID=9a078a0c
DTITLE=The`Shovels - The`Devil's Music
DYEAR=2007
DGENRE=Blues
TTITLE0=Don't Believe
TTITLE1=Driving Wheel
TTITLE2=No Flowers
TTITLE3=True Blue You
TTITLE4=Guilty Of Love
TTITLE5=Without These Chains
TTITLE6=Train's Gonna Leave On Time
TTITLE7=Judy Is A Punk
TTITLE8=The`Devil's Music
TTITLE9=Lil Ruby
TTITLE10=Don't Treat Me Like That
TTITLE11=Down Down Down
EXTD=
EXTT0=
EXTT1=
EXTT2=
EXTT3=
EXTT4=
EXTT5=
EXTT6=
EXTT7=
EXTT8=
EXTT9=
EXTT10=
EXTT11=
PLAYORDER=
